<?xml version="1.0" standalone="no"?>
<!DOCTYPE svg PUBLIC "-//W3C//DTD SVG 20010904//EN"
 "http://www.w3.org/TR/2001/REC-SVG-20010904/DTD/svg10.dtd">
<svg version="1.0" xmlns="http://www.w3.org/2000/svg"
 width="3938.000000pt" height="3938.000000pt" viewBox="0 0 3938.000000 3938.000000"
 preserveAspectRatio="xMidYMid meet">
<metadata>
Created by potrace 1.11, written by Peter Selinger 2001-2013
</metadata>
<g transform="translate(0.000000,3938.000000) scale(0.100000,-0.100000)"
fill="#000000" stroke="none">
<path d="M14021 37541 c-14 -31 -41 -94 -62 -141 -36 -83 -142 -326 -448
-1035 -84 -192 -158 -363 -166 -380 -7 -16 -50 -114 -94 -217 -44 -103 -89
-206 -100 -230 -11 -24 -56 -126 -99 -228 -44 -102 -119 -275 -167 -385 -48
-110 -114 -263 -147 -340 -33 -77 -68 -158 -78 -180 -10 -22 -71 -161 -135
-310 -174 -400 -341 -786 -395 -910 -27 -60 -116 -267 -200 -460 -83 -192
-158 -363 -165 -380 -7 -16 -28 -64 -45 -105 -18 -41 -40 -93 -50 -115 -10
-22 -48 -109 -84 -194 -37 -85 -73 -168 -81 -185 -8 -17 -82 -188 -165 -381
-83 -192 -158 -363 -165 -380 -14 -32 -179 -412 -260 -600 -26 -60 -56 -130
-67 -155 -11 -25 -26 -58 -33 -75 -7 -16 -22 -50 -33 -75 -11 -25 -55 -126
-97 -225 -42 -99 -85 -198 -95 -220 -17 -37 -84 -193 -300 -690 -46 -104 -94
-215 -107 -245 -13 -30 -29 -66 -35 -80 -6 -14 -17 -37 -25 -52 -8 -16 -11
-28 -7 -28 3 0 2 -6 -4 -12 -5 -7 -53 -114 -106 -238 -54 -124 -104 -239 -111
-256 -8 -16 -30 -68 -50 -114 -20 -46 -42 -98 -50 -114 -28 -64 -156 -358
-230 -531 -43 -99 -86 -198 -96 -220 -9 -22 -122 -281 -249 -575 -235 -544
-243 -561 -278 -640 -11 -25 -57 -130 -101 -235 -45 -104 -88 -203 -96 -220
-7 -16 -52 -120 -100 -230 -48 -110 -93 -213 -100 -230 -8 -16 -53 -120 -100
-230 -48 -110 -93 -213 -100 -230 -7 -16 -43 -100 -80 -185 -37 -85 -73 -168
-80 -185 -7 -16 -75 -172 -150 -345 -75 -173 -142 -328 -150 -345 -7 -16 -43
-100 -80 -185 -108 -249 -296 -682 -310 -715 -12 -27 -50 -114 -295 -680 -45
-104 -91 -208 -100 -230 -10 -22 -48 -110 -85 -195 -37 -85 -75 -173 -85 -195
-10 -22 -39 -89 -65 -150 -26 -60 -55 -128 -65 -150 -26 -59 -156 -359 -345
-795 -92 -212 -173 -398 -180 -415 -8 -16 -66 -151 -130 -300 -149 -344 -138
-319 -174 -398 -17 -37 -31 -73 -31 -80 0 -7 -4 -17 -9 -22 -5 -6 -21 -39 -36
-75 -14 -36 -35 -83 -45 -105 -10 -22 -78 -177 -151 -345 -124 -288 -282 -653
-316 -730 -9 -19 -24 -53 -33 -75 -10 -22 -39 -89 -65 -150 -26 -60 -76 -177
-112 -260 -36 -82 -69 -159 -74 -170 -5 -11 -24 -55 -44 -99 -19 -43 -35 -85
-35 -92 0 -8 -4 -14 -10 -14 -5 0 -10 -6 -10 -14 0 -12 -23 -66 -81 -193 -10
-24 -19 -45 -19 -47 0 -3 -13 -33 -29 -68 -16 -35 -42 -94 -59 -133 -140 -326
-267 -617 -282 -650 -10 -22 -77 -175 -148 -340 -155 -358 -153 -355 -186
-428 -14 -32 -26 -59 -26 -62 0 -2 -13 -32 -29 -67 -16 -35 -55 -124 -86 -198
-32 -74 -66 -155 -77 -179 -11 -25 -64 -146 -118 -270 -260 -600 -281 -649
-318 -731 -11 -25 -39 -90 -62 -145 -23 -55 -53 -123 -66 -152 -13 -28 -24
-54 -24 -56 0 -3 -16 -40 -36 -84 -19 -43 -39 -87 -44 -98 -4 -11 -17 -40 -28
-65 -11 -25 -63 -146 -117 -270 -53 -124 -106 -245 -117 -270 -11 -25 -26 -58
-33 -75 -8 -16 -42 -95 -76 -175 -34 -80 -70 -165 -81 -189 -11 -25 -64 -146
-118 -270 -54 -124 -150 -347 -215 -496 -64 -148 -205 -472 -312 -720 -108
-247 -204 -470 -215 -495 -41 -93 -47 -106 -62 -140 -8 -19 -60 -141 -116
-270 -56 -129 -130 -300 -165 -380 -34 -80 -71 -165 -83 -190 -43 -97 -142
-328 -142 -334 0 -3 302 -5 671 -4 l670 3 100 230 c55 127 108 249 119 272 11
24 20 45 20 49 0 3 12 31 26 62 15 31 75 171 136 310 60 139 119 277 132 305
13 29 51 117 85 197 34 80 68 159 76 175 7 17 23 53 35 80 12 27 28 63 35 80
15 32 47 107 50 115 3 10 56 132 82 190 9 19 23 53 33 75 9 22 31 72 48 110
17 39 99 228 182 420 84 193 160 368 170 390 10 22 30 69 45 105 15 36 40 93
56 128 16 35 29 65 29 67 0 4 128 301 160 370 10 22 84 193 165 380 164 379
439 1014 460 1060 8 17 82 188 165 380 84 193 158 364 165 380 8 17 35 80 61
140 25 61 54 128 64 150 10 22 86 198 170 390 83 193 159 368 169 390 10 22
76 173 146 335 129 299 286 660 310 715 44 99 155 356 155 360 0 2 13 32 29
67 17 35 53 117 81 183 28 66 58 134 65 150 19 43 107 246 177 410 33 77 68
158 78 180 10 22 64 146 120 275 56 129 113 259 126 288 13 29 24 55 24 57 0
2 11 28 24 57 13 29 47 107 76 173 28 66 58 133 66 149 8 16 14 32 14 37 0 4
15 40 34 81 19 40 77 172 129 293 52 121 140 324 195 450 55 127 146 336 202
465 56 129 108 249 115 265 7 17 65 149 128 295 63 146 167 384 230 530 63
146 167 387 232 535 64 149 122 284 130 300 7 17 88 203 180 415 91 212 176
405 187 430 40 90 228 523 272 627 14 35 38 89 52 120 14 32 31 72 39 88 7 17
49 113 93 215 150 346 280 646 300 691 11 24 122 280 247 569 125 289 235 543
245 565 10 22 84 193 165 380 215 498 275 635 295 680 10 22 46 105 80 185 35
80 74 170 87 200 13 30 28 64 33 75 4 11 17 40 28 65 35 77 284 654 292 675 4
11 19 45 33 75 14 30 37 84 52 120 15 36 38 90 52 120 14 30 67 152 118 270
128 296 493 1138 509 1175 16 35 72 164 341 785 109 250 207 478 220 505 12
28 38 89 58 135 19 47 49 114 65 150 16 36 62 139 100 230 39 91 78 179 86
195 9 17 16 33 16 37 0 7 33 84 95 223 7 17 39 89 70 160 31 72 63 144 70 160
8 17 35 80 61 140 26 61 60 138 75 173 16 34 29 68 29 75 0 7 4 17 9 22 5 6
28 55 51 110 23 55 51 120 63 145 11 25 28 63 37 85 10 22 53 121 95 220 43
99 86 198 96 220 9 22 57 130 104 240 48 110 95 218 105 240 10 22 30 69 45
105 15 36 36 83 46 105 10 22 40 92 67 155 115 267 317 733 332 765 5 11 48
110 96 220 47 110 92 214 99 230 22 46 215 494 238 550 11 28 24 54 29 60 5 5
39 10 77 10 l68 0 40 -100 c89 -222 435 -1081 443 -1100 5 -11 23 -56 41 -100
17 -44 46 -116 64 -160 18 -44 135 -334 260 -645 124 -311 230 -574 235 -585
5 -11 52 -126 104 -255 210 -525 367 -916 376 -935 5 -11 46 -112 90 -225 45
-113 88 -218 95 -235 7 -16 77 -190 155 -385 78 -195 153 -379 166 -408 13
-29 24 -55 24 -59 0 -5 207 -526 230 -578 15 -34 52 -125 200 -495 78 -195
148 -368 155 -385 7 -16 36 -88 64 -160 29 -71 56 -139 61 -150 13 -29 171
-418 174 -430 2 -5 8 -23 15 -40 7 -16 49 -120 93 -230 44 -110 100 -249 125
-310 25 -60 90 -222 144 -360 55 -137 104 -259 110 -270 5 -11 44 -109 88
-218 l78 -198 -37 -97 c-21 -53 -67 -171 -103 -262 -36 -91 -97 -248 -136
-350 -39 -102 -76 -194 -81 -205 -5 -11 -21 -49 -34 -85 -50 -136 -156 -406
-166 -422 -6 -10 -10 -23 -10 -29 0 -6 -11 -37 -24 -68 -14 -31 -77 -191 -141
-356 -64 -165 -136 -349 -160 -410 -24 -60 -68 -175 -99 -255 -31 -80 -61
-154 -66 -165 -5 -11 -28 -69 -50 -130 -23 -60 -48 -123 -55 -140 -7 -16 -47
-118 -88 -225 -42 -107 -162 -415 -267 -685 -105 -269 -227 -582 -271 -695
-44 -113 -84 -215 -89 -227 -15 -33 -25 -61 -50 -128 -13 -33 -29 -73 -36 -90
-13 -33 -197 -502 -224 -575 -23 -60 -385 -986 -517 -1320 -57 -146 -106 -269
-107 -275 -2 -5 -7 -19 -11 -30 -5 -11 -37 -94 -72 -185 -35 -91 -68 -174 -73
-185 -5 -11 -106 -270 -225 -575 -118 -305 -219 -564 -224 -575 -5 -11 -64
-162 -131 -335 -67 -173 -126 -324 -131 -335 -4 -11 -18 -45 -29 -75 -11 -30
-25 -64 -30 -75 -9 -18 -180 -459 -255 -655 -46 -120 -184 -471 -194 -495 -5
-11 -28 -69 -51 -130 -61 -159 -349 -896 -359 -920 -5 -11 -17 -40 -26 -65
-29 -75 -243 -623 -650 -1665 -213 -544 -402 -1028 -420 -1075 -18 -47 -54
-139 -80 -205 -26 -66 -76 -194 -111 -285 -36 -91 -68 -174 -73 -185 -5 -11
-15 -36 -21 -55 -7 -19 -19 -48 -26 -65 -7 -16 -19 -48 -27 -70 -8 -22 -44
-114 -79 -205 -36 -91 -133 -338 -216 -550 -82 -212 -176 -450 -207 -530 -31
-80 -77 -197 -101 -260 -24 -63 -48 -124 -53 -135 -11 -24 -117 -295 -230
-590 -45 -115 -86 -219 -91 -230 -7 -15 -241 -613 -341 -872 l-9 -23 663 0
662 0 104 268 c57 147 137 350 177 452 40 102 149 383 243 625 95 242 176 449
181 460 8 18 70 178 207 530 29 77 58 149 63 160 5 11 35 90 68 175 33 85 169
434 302 775 209 537 264 678 305 780 5 11 9 22 9 25 2 5 42 107 244 620 46
118 94 242 107 275 12 33 79 206 149 385 70 179 155 395 188 480 33 85 64 164
69 175 5 11 79 200 164 420 86 220 191 490 235 600 85 219 91 233 335 860 92
237 173 444 180 460 8 17 69 172 136 345 216 558 359 924 368 945 5 11 24 58
41 105 18 47 38 99 45 115 7 17 27 68 45 115 17 47 38 99 45 115 7 17 36 89
63 160 56 144 166 428 247 635 62 157 94 240 279 715 75 193 141 359 146 370
5 11 40 101 78 200 117 300 157 402 334 855 94 239 182 464 195 500 13 36 30
79 37 95 8 17 40 98 71 180 94 245 77 200 587 1505 34 85 103 263 155 395 52
132 116 296 143 365 189 484 338 868 344 888 4 12 10 22 14 22 4 0 18 -28 31
-62 13 -35 32 -81 42 -103 9 -22 54 -132 99 -245 44 -113 85 -214 90 -225 10
-20 132 -324 291 -725 50 -124 96 -238 104 -255 13 -28 123 -302 185 -460 15
-38 58 -144 95 -235 36 -91 154 -383 261 -650 108 -267 201 -498 208 -515 7
-16 44 -106 81 -200 37 -93 73 -183 80 -200 7 -16 50 -122 95 -235 45 -113 88
-218 95 -235 7 -16 72 -177 143 -356 135 -335 146 -363 168 -414 7 -16 81
-201 164 -410 83 -209 158 -393 165 -410 8 -16 46 -111 85 -210 39 -99 75
-189 80 -200 5 -11 19 -45 31 -75 12 -30 27 -68 34 -85 7 -16 72 -178 145
-360 72 -181 138 -343 145 -360 7 -16 30 -73 50 -125 20 -52 43 -108 50 -125
7 -16 41 -100 74 -185 34 -85 66 -164 71 -175 5 -11 62 -150 126 -310 110
-274 263 -654 519 -1290 62 -154 163 -406 225 -560 62 -154 118 -293 125 -310
7 -16 64 -156 125 -310 61 -154 115 -289 120 -300 14 -31 49 -117 180 -445 67
-168 128 -318 135 -335 7 -16 50 -122 95 -235 45 -113 87 -218 94 -235 8 -16
82 -201 166 -410 83 -209 158 -393 165 -410 7 -16 31 -77 54 -135 98 -246 284
-707 296 -735 7 -16 115 -284 239 -595 125 -311 231 -574 236 -585 11 -25 118
-289 290 -720 72 -181 137 -343 145 -360 7 -16 32 -77 55 -135 22 -58 59 -148
80 -200 22 -52 93 -229 159 -394 66 -164 122 -300 124 -302 2 -2 301 -3 665
-2 l660 3 -37 95 c-43 108 -471 1171 -584 1450 -41 102 -177 439 -302 750
-124 311 -232 579 -240 595 -7 17 -86 212 -175 435 -89 223 -173 432 -187 465
-14 33 -29 69 -33 80 -5 11 -22 54 -38 95 -46 114 -329 818 -767 1905 -73 182
-208 517 -300 745 -93 228 -176 435 -185 460 -10 25 -51 128 -93 230 -41 102
-121 300 -177 440 -56 140 -108 269 -115 285 -14 32 -225 558 -255 635 -10 25
-38 95 -63 155 -24 61 -147 364 -271 675 -125 311 -233 579 -241 595 -7 17
-59 145 -115 285 -56 140 -158 395 -227 565 -69 171 -152 378 -185 460 -33 83
-65 164 -73 180 -12 28 -266 659 -660 1640 -86 215 -160 399 -165 410 -5 11
-34 82 -65 159 -31 76 -166 413 -301 750 -135 336 -252 625 -259 641 -7 17
-58 143 -113 280 -100 249 -117 292 -133 330 -32 77 -548 1359 -569 1415 -10
25 -43 108 -75 185 -31 77 -111 275 -176 440 -66 165 -124 309 -129 320 -30
62 -270 671 -270 684 0 12 159 427 190 496 5 11 35 90 68 175 33 85 128 331
212 545 84 215 184 471 222 570 38 99 74 189 79 200 9 21 107 271 183 470 26
66 51 129 56 140 5 11 25 63 45 115 20 52 40 104 44 115 5 11 24 58 41 105 18
47 39 99 45 115 7 17 36 91 65 165 57 151 75 196 102 257 10 23 18 45 18 48 0
6 140 365 159 410 5 11 28 70 51 130 23 61 46 119 51 130 4 11 18 45 29 75 11
30 25 64 30 75 7 17 149 380 200 515 51 134 252 648 260 665 5 11 46 115 90
230 45 116 85 219 89 230 5 11 13 31 18 45 6 14 15 36 21 50 11 26 29 72 106
275 26 66 50 129 55 140 5 11 21 49 34 85 14 36 50 128 80 205 30 77 82 210
115 295 77 198 189 485 207 530 8 19 30 76 49 125 19 50 40 104 47 120 7 17
13 35 15 40 2 6 55 143 119 305 63 162 150 383 192 490 42 107 78 197 80 200
2 2 37 4 78 5 l74 0 27 -60 c15 -33 52 -112 82 -175 30 -63 67 -142 82 -175
28 -61 78 -168 150 -320 94 -199 317 -676 370 -790 15 -33 58 -122 94 -199 36
-76 66 -140 66 -141 0 -2 36 -79 80 -171 44 -91 80 -168 80 -169 0 -1 24 -54
54 -116 29 -63 68 -145 86 -184 18 -38 55 -117 82 -175 28 -58 65 -136 83
-175 85 -183 131 -281 220 -470 26 -55 60 -127 75 -160 15 -33 50 -107 78
-165 27 -58 61 -130 75 -160 14 -30 46 -100 72 -155 26 -55 64 -136 85 -180
21 -44 53 -114 73 -155 19 -41 51 -109 70 -150 71 -153 106 -228 157 -335 29
-60 65 -137 80 -170 15 -33 64 -136 108 -230 44 -93 91 -195 105 -225 14 -30
51 -109 82 -175 31 -66 70 -147 85 -180 15 -33 53 -113 84 -178 31 -65 56
-120 56 -122 0 -1 31 -67 69 -146 38 -79 78 -164 89 -189 11 -25 50 -107 86
-184 36 -76 66 -139 66 -141 0 -1 26 -58 59 -126 74 -157 123 -262 172 -366
49 -104 104 -222 159 -338 23 -49 73 -157 112 -239 38 -82 84 -181 102 -220
19 -39 55 -116 81 -171 26 -55 58 -125 73 -155 14 -30 54 -115 89 -189 34 -73
63 -135 63 -136 0 -2 34 -73 75 -160 41 -86 75 -158 75 -160 0 -1 34 -73 75
-159 41 -86 75 -159 75 -161 0 -3 27 -62 61 -132 34 -71 74 -155 89 -188 16
-33 58 -122 94 -199 36 -76 66 -140 66 -141 0 -2 31 -68 69 -147 66 -138 86
-180 156 -333 29 -62 77 -164 240 -510 23 -49 54 -115 68 -145 14 -30 48 -104
77 -165 29 -60 65 -137 80 -170 15 -33 49 -105 75 -160 26 -55 60 -129 77
-165 17 -36 57 -121 89 -188 33 -68 59 -125 59 -127 0 -2 26 -59 59 -126 32
-68 75 -160 96 -204 21 -44 55 -116 75 -160 50 -107 95 -203 140 -300 21 -44
56 -119 79 -167 40 -87 78 -166 161 -343 23 -49 57 -121 75 -160 18 -38 52
-110 75 -160 23 -49 57 -121 75 -160 126 -270 201 -430 230 -490 18 -38 52
-110 75 -160 43 -90 57 -121 188 -400 38 -82 99 -212 136 -289 36 -76 66 -140
66 -142 0 -2 32 -69 70 -150 39 -80 70 -147 70 -149 0 -1 31 -68 70 -149 38
-80 78 -165 89 -189 11 -23 43 -91 71 -152 29 -60 63 -135 77 -165 14 -30 54
-115 89 -188 35 -74 64 -136 64 -138 0 -2 36 -78 80 -170 44 -91 80 -167 80
-169 0 -1 24 -54 54 -116 29 -63 85 -181 124 -264 38 -82 91 -194 116 -247 25
-53 59 -125 75 -160 32 -70 85 -183 154 -329 25 -52 75 -158 110 -235 36 -76
89 -188 117 -249 29 -60 68 -143 86 -182 72 -154 103 -221 149 -318 26 -55 60
-127 75 -160 28 -61 70 -150 155 -330 26 -55 58 -125 72 -155 14 -30 54 -115
89 -189 35 -73 64 -135 64 -136 0 -2 32 -69 70 -150 39 -81 70 -148 70 -150 0
-1 36 -78 80 -169 44 -92 80 -169 80 -171 0 -2 29 -63 64 -137 35 -73 78 -164
96 -203 64 -138 99 -212 164 -349 36 -76 66 -140 66 -142 0 -1 29 -64 65 -139
36 -75 65 -138 65 -140 0 -1 33 -72 74 -156 40 -85 87 -183 104 -219 130 -280
178 -381 231 -494 33 -70 61 -129 61 -131 0 -1 34 -73 75 -160 41 -86 75 -158
75 -160 0 -2 24 -54 54 -116 30 -63 85 -181 124 -264 38 -82 100 -212 136
-288 36 -77 66 -140 66 -142 0 -2 29 -63 63 -137 35 -73 77 -160 92 -193 15
-33 50 -107 78 -165 27 -58 62 -132 77 -165 15 -33 81 -172 145 -310 65 -137
132 -281 150 -320 18 -38 60 -128 94 -199 34 -70 61 -130 61 -131 0 -1 34 -73
75 -159 41 -86 75 -158 75 -160 0 -2 31 -68 69 -148 38 -79 80 -168 94 -198
23 -51 124 -267 227 -485 23 -49 57 -121 75 -160 18 -38 52 -110 75 -160 23
-49 55 -117 70 -150 44 -95 97 -209 156 -334 31 -64 69 -146 87 -183 l31 -68
679 0 678 0 -6 21 c-6 18 -30 70 -162 349 -25 52 -58 122 -73 155 -15 33 -82
175 -148 315 -66 140 -136 290 -156 333 -85 183 -108 232 -150 319 -80 170
-146 310 -146 314 0 1 -36 78 -80 170 -44 91 -80 167 -80 169 0 1 -31 68 -70
149 -38 80 -79 168 -91 194 -12 26 -44 94 -71 152 -28 58 -61 130 -75 160 -14
30 -46 98 -71 150 -24 52 -62 131 -82 175 -85 182 -255 545 -291 621 -47 100
-98 210 -199 424 -120 255 -145 309 -183 390 -19 41 -56 120 -82 175 -26 55
-94 201 -152 325 -58 124 -125 266 -148 315 -67 141 -124 263 -162 345 -19 41
-53 113 -75 160 -22 47 -55 117 -73 155 -18 39 -52 111 -75 160 -76 162 -116
248 -190 405 -88 190 -123 263 -190 405 -29 61 -65 137 -80 170 -15 33 -47
101 -71 150 -23 50 -43 92 -44 95 -1 3 -19 41 -39 85 -21 44 -57 121 -81 170
-23 50 -52 113 -65 140 -12 28 -44 95 -70 150 -26 55 -114 242 -195 415 -81
173 -164 351 -185 395 -21 44 -56 118 -78 165 -22 47 -61 130 -87 185 -26 55
-60 127 -75 160 -15 33 -48 103 -73 155 -70 150 -109 234 -190 405 -105 225
-153 328 -194 415 -20 41 -50 107 -68 145 -18 39 -72 153 -120 255 -48 102
-149 318 -225 480 -76 162 -161 345 -190 405 -29 61 -67 142 -85 180 -69 149
-100 215 -161 344 -35 73 -64 135 -64 137 0 2 -34 74 -75 160 -41 86 -75 158
-75 159 0 2 -26 59 -59 127 -83 175 -138 291 -172 364 -57 124 -87 190 -139
299 -29 61 -83 175 -120 255 -83 177 -139 298 -192 410 -23 47 -55 117 -73
155 -18 39 -52 111 -75 160 -23 50 -59 126 -80 170 -69 148 -102 219 -223 475
-66 140 -136 291 -157 335 -35 75 -75 161 -157 335 -20 41 -51 109 -70 150
-20 41 -53 113 -75 160 -41 86 -94 198 -153 325 -18 39 -60 128 -94 199 -33
70 -61 129 -61 131 0 2 -31 69 -70 150 -38 81 -70 148 -70 150 0 1 -36 78 -80
169 -44 92 -80 169 -80 170 0 2 -26 59 -59 127 -32 68 -70 149 -84 179 -13 30
-55 117 -91 194 -36 76 -66 140 -66 141 0 2 -36 78 -80 170 -44 92 -80 168
-80 170 0 2 -29 63 -64 137 -35 73 -78 165 -96 203 -89 191 -105 226 -142 305
-22 47 -57 121 -78 165 -20 44 -53 114 -72 155 -20 41 -53 111 -73 155 -21 44
-58 123 -82 175 -25 52 -91 194 -148 315 -105 223 -133 284 -268 570 -41 88
-124 266 -185 395 -60 129 -133 285 -162 345 -29 61 -65 137 -80 170 -15 33
-48 103 -72 155 -25 52 -57 122 -73 155 -15 33 -49 105 -75 160 -26 55 -61
129 -78 165 -16 36 -49 106 -72 155 -23 50 -59 126 -80 170 -20 44 -54 115
-74 158 -20 42 -52 112 -72 155 -20 42 -57 120 -81 172 -25 52 -76 160 -113
240 -37 80 -85 183 -108 230 -49 103 -115 244 -152 325 -15 33 -51 110 -80
170 -29 61 -84 178 -122 260 -39 83 -89 188 -110 235 -22 47 -55 117 -73 155
-36 76 -171 365 -228 485 -99 212 -131 280 -154 330 -14 30 -54 115 -89 188
-35 74 -64 135 -64 137 0 2 -27 61 -61 131 -33 70 -75 159 -93 198 -48 101
-100 212 -167 355 -33 67 -59 124 -59 126 0 2 -34 74 -75 160 -41 87 -75 158
-75 160 0 1 -26 58 -59 126 -32 68 -71 151 -86 184 -15 33 -50 107 -78 165
-27 58 -62 132 -77 165 -15 33 -49 105 -75 160 -59 125 -117 249 -161 341 -89
192 -196 421 -311 664 -25 52 -56 120 -70 150 -14 30 -46 98 -71 150 -24 52
-59 127 -77 166 l-33 71 -891 0 -890 0 -7 -21 c-8 -26 -210 -549 -228 -591 -8
-16 -44 -109 -81 -205 -36 -96 -71 -184 -75 -195 -5 -11 -35 -85 -66 -165 -30
-80 -75 -194 -99 -255 -24 -60 -120 -308 -214 -550 -94 -242 -175 -449 -180
-460 -5 -11 -32 -78 -60 -150 -27 -71 -55 -143 -62 -160 -7 -16 -13 -32 -14
-35 -1 -3 -5 -14 -10 -25 -4 -11 -28 -72 -52 -135 -24 -63 -50 -129 -58 -147
-8 -17 -15 -33 -15 -36 0 -3 -39 -104 -86 -224 -47 -120 -120 -308 -163 -418
-43 -110 -111 -283 -151 -385 -131 -334 -232 -594 -255 -655 -52 -135 -247
-632 -260 -662 -8 -17 -15 -36 -15 -43 0 -7 -6 -24 -14 -38 -8 -15 -106 -261
-217 -547 -305 -786 -458 -1178 -468 -1200 -5 -11 -38 -96 -74 -190 -37 -93
-105 -269 -152 -390 -47 -121 -104 -265 -125 -320 -105 -269 -97 -252 -108
-225 -27 69 -236 589 -247 615 -13 30 -91 222 -426 1060 -100 248 -187 464
-194 480 -13 29 -109 268 -520 1290 -108 270 -206 509 -216 532 -10 23 -19 46
-19 51 0 5 -6 22 -14 38 -13 26 -173 422 -216 534 -9 25 -56 140 -103 255 -46
116 -178 442 -292 725 -114 283 -249 619 -300 745 -51 127 -134 334 -185 460
-50 127 -98 244 -105 260 -7 17 -124 307 -260 645 -207 514 -316 784 -341 846
-4 8 -257 11 -897 11 l-892 0 -24 -56z"/>
<path d="M19245 20488 c-9 -27 -252 -664 -265 -693 -5 -11 -95 -245 -200 -520
-105 -275 -195 -509 -200 -520 -5 -11 -34 -87 -65 -170 -31 -82 -72 -188 -91
-235 -52 -133 -704 -1832 -704 -1835 0 -2 761 -4 1690 -3 930 0 1690 1 1690 3
0 3 -53 120 -105 230 -20 44 -51 109 -67 145 -17 36 -54 117 -83 180 -29 63
-69 149 -88 190 -67 146 -90 196 -138 298 -27 57 -49 105 -49 107 0 2 -20 46
-44 97 -82 175 -126 270 -126 273 0 1 -20 45 -44 96 -24 52 -57 123 -73 159
-17 36 -45 97 -63 135 -61 130 -97 210 -120 260 -19 43 -139 302 -250 540 -18
39 -56 122 -85 185 -29 63 -66 144 -83 180 -16 36 -69 149 -116 253 -48 103
-102 220 -120 260 -19 39 -68 146 -110 237 -42 90 -78 166 -80 168 -2 2 -7 -7
-11 -20z"/>
<path d="M17106 13681 c-2 -3 -4 -277 -4 -609 0 -547 2 -603 17 -610 12 -5
4481 -8 4582 -3 14 1 16 59 15 614 l-1 612 -2303 1 c-1266 1 -2304 -1 -2306
-5z"/>
<path d="M15694 4080 c-344 -77 -572 -313 -639 -662 -21 -110 -14 -340 14
-448 68 -262 249 -461 490 -536 193 -61 480 -56 680 10 l53 18 -6 37 c-3 20
-12 59 -21 87 l-15 52 -68 -24 c-133 -46 -343 -54 -477 -19 -279 74 -435 305
-437 644 -1 341 164 580 453 657 97 25 265 27 369 3 124 -29 130 -31 136 -40
12 -20 23 -6 39 49 8 31 20 66 24 78 5 11 6 25 3 31 -11 16 -62 39 -117 52
-27 7 -59 15 -70 18 -11 3 -90 7 -175 8 -121 2 -173 -1 -236 -15z"/>
<path d="M27678 4095 c-1 -1 -21 -5 -43 -8 -76 -11 -199 -62 -270 -111 -183
-129 -302 -340 -336 -600 -11 -86 -8 -286 6 -351 63 -305 225 -512 470 -601
93 -34 107 -36 240 -40 155 -5 256 17 375 79 187 98 315 269 376 503 34 127
42 361 18 494 -57 318 -261 552 -539 619 -69 16 -284 28 -297 16z m237 -193
c28 -9 52 -16 55 -17 25 -3 111 -69 156 -118 86 -96 144 -230 170 -397 8 -52
8 -210 0 -258 -3 -17 -8 -47 -11 -64 -18 -107 -81 -242 -153 -326 -163 -192
-451 -220 -649 -63 -144 113 -223 304 -229 551 -5 245 54 430 180 568 119 129
314 179 481 124z"/>
<path d="M31691 4089 c-380 -72 -621 -408 -619 -864 1 -372 148 -641 423 -775
100 -48 190 -67 323 -68 351 -2 625 210 722 558 30 110 35 158 34 330 0 170
-14 251 -60 366 -80 202 -233 359 -409 419 -119 41 -298 56 -414 34z m274
-185 c238 -73 390 -337 387 -671 -3 -227 -78 -431 -200 -546 -200 -186 -507
-172 -683 33 -138 160 -199 435 -154 690 23 129 46 190 113 292 80 125 196
201 327 215 28 3 51 7 53 8 8 7 111 -7 157 -21z"/>
<path d="M8719 4076 c-2 -2 -38 -6 -79 -10 -41 -3 -88 -10 -105 -14 l-30 -8 0
-817 0 -817 107 0 108 0 0 360 0 359 138 -3 c138 -4 172 -10 229 -39 76 -40
143 -160 169 -304 12 -65 55 -233 76 -298 l23 -70 113 -3 c61 -1 112 -1 112 1
0 2 -9 30 -20 63 -16 45 -84 301 -115 434 -29 121 -108 232 -198 277 l-38 19
38 13 c95 34 188 120 234 216 34 73 41 101 42 185 2 225 -114 373 -343 435
-49 14 -113 19 -261 21 -108 2 -198 2 -200 0z m339 -177 c106 -21 177 -71 220
-153 22 -44 26 -63 26 -136 0 -101 -22 -161 -81 -216 -82 -78 -161 -101 -355
-103 l-148 -2 0 301 c0 259 2 301 15 306 54 21 229 23 323 3z"/>
<path d="M22903 4072 l-53 -3 -1 -47 c-3 -95 -6 -147 -24 -372 -3 -30 -7 -93
-10 -140 -3 -47 -8 -114 -11 -150 -10 -147 -13 -200 -19 -290 -3 -52 -8 -115
-10 -140 -2 -25 -7 -92 -11 -150 -9 -151 -10 -165 -18 -272 l-7 -98 104 0 104
0 2 58 c2 31 4 77 6 102 2 25 6 95 9 155 4 61 8 133 11 160 2 28 7 100 10 160
3 61 8 135 10 165 7 91 23 463 24 579 1 67 6 76 15 26 7 -36 34 -136 70 -260
27 -91 340 -1033 356 -1070 5 -11 12 -30 15 -42 6 -22 12 -23 90 -23 82 0 83
0 93 28 5 15 85 234 177 487 172 474 218 608 279 805 19 63 36 111 36 105 1
-5 3 -77 5 -160 4 -159 13 -387 20 -495 2 -36 6 -110 10 -165 3 -55 8 -134 10
-175 4 -80 20 -372 24 -432 1 -5 49 -8 107 -8 l105 0 -6 103 c-3 56 -7 127
-10 157 -2 30 -7 102 -10 160 -3 58 -7 130 -10 160 -2 30 -7 109 -11 175 -3
66 -8 140 -10 165 -1 25 -5 86 -8 135 -3 50 -8 126 -10 170 -10 140 -16 247
-22 340 -2 49 -7 91 -9 94 -7 6 -266 3 -272 -3 -5 -4 -124 -326 -182 -491 -10
-27 -48 -131 -84 -230 -76 -210 -169 -495 -187 -578 -7 -31 -15 -56 -17 -54
-1 2 -23 75 -48 163 -25 87 -58 195 -72 239 -40 121 -265 768 -283 810 -4 11
-16 46 -26 79 -11 32 -23 60 -29 62 -15 6 -161 10 -222 6z"/>
<path d="M1512 4043 c-25 -67 -350 -1027 -357 -1053 -2 -8 -47 -140 -99 -293
-53 -153 -96 -281 -96 -283 0 -3 50 -3 112 -2 l112 3 85 258 85 257 292 0 291
0 52 -152 c29 -84 69 -201 89 -260 l37 -108 114 0 c112 0 113 0 108 23 -2 12
-68 209 -146 437 -78 228 -184 539 -235 690 -52 151 -111 327 -133 390 l-40
115 -130 3 -130 3 -11 -28z m144 -196 c10 -66 55 -212 159 -516 42 -123 73
-226 70 -229 -6 -6 -474 -7 -479 -1 -2 2 41 139 95 304 54 165 109 337 120
383 20 75 30 93 35 59z"/>
<path d="M4945 3240 l0 -830 107 0 108 0 0 375 0 375 314 0 313 0 1 88 0 89
-297 1 c-163 0 -304 1 -313 1 -17 1 -18 21 -18 276 l0 275 340 0 340 0 0 90 0
90 -448 0 -447 0 0 -830z"/>
<path d="M12185 3240 l0 -830 107 0 108 0 0 830 0 830 -108 0 -107 0 0 -830z"/>
<path d="M19352 4043 c-6 -15 -29 -82 -51 -148 -22 -66 -99 -293 -171 -505
-72 -212 -133 -392 -135 -400 -2 -8 -47 -141 -99 -294 -53 -154 -96 -281 -96
-283 0 -2 50 -2 112 -1 l112 3 85 257 86 258 291 0 292 0 40 -117 c22 -65 62
-182 88 -260 l49 -143 112 0 c62 0 113 4 113 9 0 12 -19 69 -160 481 -66 195
-157 461 -201 590 -44 129 -106 312 -138 405 l-58 170 -130 3 -130 3 -11 -28z
m210 -428 c27 -88 52 -167 55 -175 33 -86 112 -334 108 -338 -6 -7 -474 -6
-480 0 -2 2 23 82 56 178 33 96 61 180 63 185 1 6 16 53 33 105 26 80 66 223
78 280 2 8 4 17 5 20 1 3 9 -17 17 -45 9 -27 38 -122 65 -210z"/>
<path d="M35052 4058 c3 -7 44 -134 92 -283 48 -148 91 -279 95 -290 5 -11 22
-63 39 -115 34 -107 264 -815 292 -900 l19 -55 120 -3 c67 -1 121 -1 121 1 0
2 12 35 26 73 14 38 51 143 84 234 32 91 79 224 105 295 26 72 59 166 75 210
15 44 48 136 73 205 25 69 84 235 132 370 48 135 90 251 92 258 4 10 -20 12
-112 10 l-117 -3 -29 -85 c-17 -47 -71 -204 -120 -350 -50 -146 -106 -310
-125 -365 -19 -55 -37 -107 -39 -115 -2 -8 -22 -69 -43 -135 -22 -66 -45 -138
-51 -160 -29 -100 -54 -191 -54 -202 -1 -36 -15 0 -45 115 -18 70 -34 132 -36
137 -1 6 -8 30 -15 55 -14 51 -89 292 -151 485 -23 72 -43 137 -45 145 -2 8
-25 80 -50 160 -26 80 -59 183 -74 230 l-27 85 -118 3 c-93 2 -117 0 -114 -10z"/>
</g>
</svg>
